<svg width="29" height="23" viewBox="0 0 29 23" fill="none" xmlns="http://www.w3.org/2000/svg">
<path id="Vector" d="M12.2516 16.5312C12.8315 17.1063 13.5806 17.388 14.4989 17.3765C15.4171 17.365 16.0938 17.0353 16.5287 16.3875L24.6481 4.3125L12.469 12.3625C11.8166 12.7938 11.4725 13.4526 11.4367 14.3391C11.401 15.2255 11.6726 15.9563 12.2516 16.5312ZM14.4989 0C15.9246 0 17.2962 0.197417 18.6137 0.59225C19.9311 0.987084 21.1693 1.58029 22.3283 2.37188L19.5735 4.09687C18.776 3.68958 17.9486 3.38435 17.0913 3.18119C16.2339 2.97802 15.3698 2.87596 14.4989 2.875C11.285 2.875 8.54806 3.99529 6.28816 6.23588C4.02827 8.47646 2.89881 11.1895 2.89978 14.375C2.89978 15.3813 3.03897 16.3755 3.31734 17.3578C3.59572 18.3401 3.98816 19.2625 4.49465 20.125H24.5031C25.0589 19.2146 25.4639 18.2682 25.7181 17.2859C25.9723 16.3036 26.099 15.2854 26.098 14.2312C26.098 13.3687 25.995 12.5302 25.7892 11.7156C25.5833 10.901 25.2754 10.1104 24.8656 9.34375L26.6054 6.6125C27.3304 7.73854 27.9045 8.93646 28.3279 10.2063C28.7513 11.476 28.9746 12.7938 28.9978 14.1594C29.021 15.525 28.8639 16.8307 28.5265 18.0766C28.1892 19.3224 27.6938 20.5083 27.0404 21.6344C26.7746 22.0656 26.4121 22.401 25.953 22.6406C25.4939 22.8802 25.0106 23 24.5031 23H4.49465C3.98719 23 3.5039 22.8802 3.04476 22.6406C2.58563 22.401 2.22316 22.0656 1.95735 21.6344C1.32906 20.5562 0.845768 19.4125 0.507461 18.2031C0.169153 16.9936 0 15.7176 0 14.375C0 12.3865 0.380837 10.5239 1.14251 8.78744C1.90419 7.05094 2.94327 5.52958 4.25977 4.22338C5.57627 2.91717 7.11653 1.88696 8.88056 1.13275C10.6446 0.378542 12.5174 0.000958333 14.4989 0Z" fill="black"/>
</svg>
