<svg width="30" height="29" viewBox="0 0 30 29" fill="none" xmlns="http://www.w3.org/2000/svg">
<path id="Vector" d="M14.0455 6.27529e-05C11.8043 0.0341563 9.64846 0.416218 7.62075 1.13024L7.97765 2.22701C9.88755 1.5462 11.9201 1.18141 14.0416 1.14983L14.0455 6.27529e-05ZM15.2115 0.011804L15.2078 1.16552C18.1341 1.28877 21.2124 2.03463 24.3524 3.45538L24.9374 2.43508C21.6263 0.923791 18.3452 0.131602 15.2115 0.011804ZM6.53283 1.5501C5.27664 2.07877 4.07597 2.74011 2.94126 3.5279L3.49115 4.56578C4.56477 3.80498 5.70055 3.16662 6.88967 2.65478L6.53283 1.5501ZM26.0605 2.82154L22.2233 9.51029L25.6627 11.5078L29.5 4.81893L26.0605 2.82154ZM15.1999 3.21792L15.198 4.37358C17.6774 4.45458 20.2121 5.08308 22.7068 6.32389L23.2917 5.30547C20.6183 3.96622 17.8815 3.29565 15.1999 3.21792ZM14.0339 3.22181C12.1842 3.28673 10.3699 3.63338 8.62892 4.2362L8.98582 5.33687C10.6122 4.76783 12.3051 4.44026 14.032 4.37748L14.0339 3.22181ZM1.98974 4.22829C1.4734 4.63362 0.976269 5.06314 0.5 5.51544L1.12208 6.5417C1.57774 6.09807 2.05401 5.6764 2.5493 5.2781L1.98974 4.22829ZM7.53695 4.65023C6.45802 5.09865 5.41303 5.64767 4.40947 6.29055L4.95936 7.32654C5.90339 6.71248 6.88405 6.18632 7.89566 5.75685L7.53695 4.65023ZM15.1882 6.86537L15.1843 8.02317C17.0668 8.09725 19.0157 8.51385 20.9968 9.30434L21.5856 8.27815C19.4205 7.39623 17.271 6.93738 15.1882 6.86537ZM14.0222 6.86737C12.5407 6.91886 11.099 7.16436 9.71697 7.59339L10.0737 8.69217C11.3402 8.29786 12.6589 8.06963 14.0182 8.02109L14.0222 6.86737ZM3.43842 6.95371C2.95778 7.30071 2.49139 7.66727 2.0404 8.05249L2.65649 9.06694C3.08712 8.69177 3.53271 8.33436 3.99218 7.9956L3.43842 6.95371ZM8.61532 7.97991C7.70966 8.33277 6.83426 8.76494 5.99268 9.27301L6.54063 10.3031C7.32269 9.82385 8.13482 9.41629 8.97403 9.08277L8.61532 7.97991ZM5.0099 9.91055C4.57723 10.2128 4.15766 10.5336 3.75233 10.8721L4.36655 11.8845C4.75149 11.5561 5.15025 11.2445 5.56172 10.9505L5.0099 9.91055ZM22.4299 10.9859L17.5981 19.4053C18.2959 19.6019 18.9657 19.8881 19.591 20.2569L24.2899 12.065L22.4299 10.9859ZM15.3148 20.2646C11.5333 20.2647 8.43856 23.1412 8.05171 26.8417H13.1759C13.0344 26.5405 12.9611 26.2114 12.9615 25.8783C12.9615 24.6306 13.9795 23.6081 15.2193 23.6081C16.4592 23.6081 17.4773 24.6306 17.4773 25.8783C17.4773 26.222 17.4005 26.5485 17.2627 26.8417H22.578C22.1912 23.1412 19.0963 20.2646 15.3148 20.2646ZM15.2194 24.7815C14.6096 24.7815 14.1275 25.2647 14.1275 25.8783C14.1275 26.2976 14.3537 26.6562 14.6909 26.8417H15.7477C16.0849 26.6561 16.3112 26.2976 16.3112 25.8783C16.3112 25.2647 15.8292 24.7815 15.2194 24.7815ZM5.64364 28.0151V29H24.5707V28.015L5.64364 28.0151Z" fill="black"/>
</svg>
