<svg width="28" height="27" viewBox="0 0 28 27" fill="none" xmlns="http://www.w3.org/2000/svg">
<path id="Vector" d="M25.5333 5.21999L25.5532 5.19449L19.8689 0.3345L18.0784 2.6655L21.0157 5.17649C20.2871 5.64388 19.7085 6.33186 19.3552 7.15099C19.0019 7.97012 18.8903 8.88249 19.0348 9.76949C19.2479 11.118 20.1276 12.2835 21.2658 12.936C22.5377 13.6665 23.6532 13.599 24.6451 13.227L24.6238 22.5C24.6255 22.7483 24.5685 22.9933 24.458 23.2125C24.3475 23.4318 24.1869 23.6186 23.9908 23.7559C23.7947 23.8932 23.5693 23.9767 23.3349 23.9989C23.1006 24.0211 22.8646 23.9812 22.6485 23.883C22.4793 23.8064 22.3259 23.6958 22.1966 23.5575C21.9319 23.2765 21.7832 22.8963 21.7831 22.5L21.8158 19.5C21.8172 18.9095 21.7078 18.3247 21.4939 17.7791C21.28 17.2336 20.9658 16.7381 20.5695 16.3215C20.1736 15.9027 19.7034 15.5704 19.1857 15.3436C18.6681 15.1169 18.1131 15.0001 17.5526 15H16.1316V3C16.1316 2.20435 15.8321 1.44129 15.2991 0.878678C14.7661 0.31607 14.0432 0 13.2895 0H3.34211C2.58833 0 1.86543 0.31607 1.33243 0.878678C0.799435 1.44129 0.5 2.20435 0.5 3V24C0.5 24.7956 0.799435 25.5587 1.33243 26.1213C1.86543 26.6839 2.58833 27 3.34211 27H13.2895C14.0432 27 14.7661 26.6839 15.2991 26.1213C15.8321 25.5587 16.1316 24.7956 16.1316 24V18H17.5526C17.7468 18 17.9321 18.039 18.1083 18.117C18.4463 18.2735 18.7158 18.5591 18.8628 18.9165C18.9363 19.1012 18.974 19.2996 18.9737 19.5L18.9396 22.5C18.9396 23.109 19.0518 23.6985 19.2749 24.252C19.4895 24.7905 19.7979 25.272 20.1858 25.6785C20.5803 26.0993 21.0503 26.4329 21.5683 26.6598C22.0863 26.8867 22.6419 27.0023 23.2027 27C23.7816 27 24.3348 26.882 24.8625 26.646C25.3713 26.421 25.8288 26.0955 26.2139 25.6845C26.612 25.2676 26.9276 24.7714 27.1425 24.2248C27.3574 23.6781 27.4673 23.0918 27.4659 22.5L27.5 8.99999C27.4982 8.2465 27.3172 7.50555 26.9736 6.84511C26.6299 6.18466 26.1347 5.62587 25.5333 5.21999ZM13.2895 7.49999H3.34211V3H13.2895V7.49999ZM23.2368 10.5C22.86 10.5 22.4985 10.342 22.232 10.0606C21.9655 9.77934 21.8158 9.39781 21.8158 8.99999C21.8158 8.60216 21.9655 8.22063 22.232 7.93933C22.4985 7.65803 22.86 7.49999 23.2368 7.49999C23.6137 7.49999 23.9752 7.65803 24.2417 7.93933C24.5082 8.22063 24.6579 8.60216 24.6579 8.99999C24.6579 9.39781 24.5082 9.77934 24.2417 10.0606C23.9752 10.342 23.6137 10.5 23.2368 10.5Z" fill="black"/>
</svg>
